# xmcd
#
# Track frame offsets:
#	150
#	8408
#	19669
#	35670
#	49500
#	66578
#	86594
#	97195
#	110508
#	126074
#	140018
#	158715
#	169013
#	187345
#	204678
#	215937
#
# Disc length: 3086 seconds
#
# Revision: 1
# Processed by: cddbd v1.5.2PL0 Copyright (c) Steve Scherf et al.
# Submitted via: audiograbber 1.82.00
#
DISCID=ec0c0c10
DTITLE=Galley Slaves - Hands Behind Your Back
DYEAR=2006
DGENRE=Country
TTITLE0=Hawaiian Five Oh
TTITLE1=Jazz Me Blues
TTITLE2=Bread And Water
TTITLE3=Going Home {From Local Hero]
TTITLE4=Til A tear Becomes A Rose
TTITLE5=Cowboy Medley
TTITLE6=That's What I Like
TTITLE7=Rooty Toot Galoot
TTITLE8=Tennessee Waltz
TTITLE9=That's The Way Love Goes
TTITLE10=Penny's Meringue
TTITLE11=A You're Adorable
TTITLE12=Will You Still Love Me Tomorrow
TTITLE13=Songbird
TTITLE14=Indian Summer
TTITLE15=Texas Tap
EXTD=
EXTT0=
EXTT1=
EXTT2=
EXTT3=
EXTT4=
EXTT5=
EXTT6=
EXTT7=
EXTT8=
EXTT9=
EXTT10=
EXTT11=
EXTT12=
EXTT13=
EXTT14=
EXTT15=
PLAYORDER=
